<svg height="512" viewBox="0 0 64 64" width="512" xmlns="http://www.w3.org/2000/svg"><g id="Setting-Smartphone-Device-Repair-Configuration"><path d="m51 8v48a5 5 0 0 1 -5 5h-28a5 5 0 0 1 -5-5v-48a5 5 0 0 1 5-5h28a5 5 0 0 1 5 5z" fill="#5aaae7"/><path d="m51 19.51v36.49a5 5 0 0 1 -5 5h-28a5 5 0 0 1 -3.01-1.01c7.61-4.31 24.5-16.04 36.01-40.48z" fill="#479fe3"/><path d="m34 53h-4a2 2 0 0 0 0 4h4a2 2 0 0 0 0-4z" fill="#e6e7e8"/><path d="m48 28h-4.86a7.419 7.419 0 0 0 -.55-1.09l2.02-2.69-2.83-2.83-2.69 2.02a9.8 9.8 0 0 0 -2.62-1.09l-.47-3.32h-4l-.47 3.32a9.8 9.8 0 0 0 -2.62 1.09l-2.69-2.02-2.83 2.83 2.02 2.69a9.8 9.8 0 0 0 -1.09 2.62l-3.32.47v.5l-2 .5v2l2 .5v.5l3.32.47a9.8 9.8 0 0 0 1.09 2.62l-2.02 2.69 2.83 2.83 2.69-2.02a9.8 9.8 0 0 0 2.62 1.09l.47 3.32h4l.47-3.32a9.8 9.8 0 0 0 2.62-1.09l2.69 2.02 2.83-2.83-2.02-2.69a7.419 7.419 0 0 0 .55-1.09h4.86a1 1 0 0 0 1-1v-6a1 1 0 0 0 -1-1z" fill="#3d9ae2"/><path d="m45 28v4l-3.32.47a8.956 8.956 0 0 1 -.54 1.53 7.419 7.419 0 0 1 -.55 1.09l2.02 2.69-2.83 2.83-2.69-2.02a9.8 9.8 0 0 1 -2.62 1.09l-.47 3.32h-4l-.47-3.32a9.8 9.8 0 0 1 -2.62-1.09l-2.69 2.02-2.83-2.83 2.02-2.69a9.8 9.8 0 0 1 -1.09-2.62l-3.32-.47v-4l3.32-.47a9.8 9.8 0 0 1 1.09-2.62l-2.02-2.69 2.83-2.83 2.69 2.02a9.8 9.8 0 0 1 2.62-1.09l.47-3.32h4l.47 3.32a9.8 9.8 0 0 1 2.62 1.09l2.69-2.02 2.83 2.83-2.02 2.69a7.419 7.419 0 0 1 .55 1.09 8.956 8.956 0 0 1 .54 1.53z" fill="#ff9811"/><path d="m35 26a4.941 4.941 0 0 0 -3-1 5 5 0 0 0 0 10 4.941 4.941 0 0 0 3-1 5 5 0 0 0 0-8z" fill="#ffd422"/><path d="m46 26h-13a1 1 0 0 0 -1 1v3h15v-3a1 1 0 0 0 -1-1z" fill="#00b39d"/><path d="m45 30h-13v3a1 1 0 0 0 1 1h13a1 1 0 0 0 1-1v-3z" fill="#00ccb3"/><path d="m21 28-2 .5-2 .5v2l2 .5 2 .5h2v-2-2z" fill="#d8d7da"/><path d="m25 6h2v2h-2z" fill="#3d9ae2"/><path d="m29 6h6v2h-6z" fill="#3d9ae2"/><g fill="#ee8700"><path d="m31 20h2v2h-2z"/><path d="m24.636 22.636h2v2h-2z" transform="matrix(.707 -.707 .707 .707 -9.204 25.05)"/><path d="m24.636 35.364h2v2h-2z" transform="matrix(.707 -.707 .707 .707 -18.205 28.778)"/><path d="m31 38h2v2h-2z"/><path d="m37.364 35.364h2v2h-2z" transform="matrix(.707 -.707 .707 .707 -14.477 37.778)"/><path d="m37.364 22.636h2v2h-2z" transform="matrix(.707 -.707 .707 .707 -5.476 34.05)"/></g><path d="m23 29h9v2h-9z" fill="#acabb1"/></g></svg>