<svg width="303" height="303" xmlns="http://www.w3.org/2000/svg">
 <!-- Created with Method Draw - http://github.com/duopixel/Method-Draw/ -->
 <defs>
  <filter height="200%" width="200%" y="-50%" x="-50%" id="svg_6_blur">
   <feGaussianBlur stdDeviation="0" in="SourceGraphic"/>
  </filter>
  <linearGradient spreadMethod="pad" y2="0" x2="1" y1="1" x1="0" id="svg_36">
   <stop offset="0" stop-opacity="0.99219" stop-color="#aeddff"/>
   <stop offset="1" stop-opacity="0.98828" stop-color="#1867c0"/>
  </linearGradient>
  <linearGradient spreadMethod="pad" y2="0" x2="1" y1="1" x1="0" id="svg_42">
   <stop offset="0" stop-opacity="0.98828" stop-color="#000000"/>
   <stop offset="1" stop-opacity="0.98828" stop-color="#1867c0"/>
  </linearGradient>
 </defs>
 <g>
  <title>background</title>
  <rect fill="none" id="canvas_background" height="305" width="305" y="-1" x="-1"/>
  <g display="none" overflow="visible" y="0" x="0" height="100%" width="100%" id="canvasGrid">
   <rect fill="url(#gridpattern)" stroke-width="0" y="1" x="1" height="600" width="800"/>
  </g>
 </g>
 <g>
  <title>Layer 1</title>
  <rect id="svg_29" height="205.43487" width="209.23921" y="45.24995" x="43.61952" stroke-opacity="null" stroke-width="0" stroke="null" fill="#ffffff"/>
  <path stroke="null" filter="url(#svg_6_blur)" id="svg_6" d="m151.5,0.23029c-83.3696,0 -150.95227,67.72479 -150.95227,151.26972c0,83.54493 67.58267,151.26972 150.95227,151.26972c83.36961,0 150.95227,-67.72479 150.95227,-151.26972c0,-83.54493 -67.58266,-151.26972 -150.95227,-151.26972zm87.09823,140.52867c-15.0703,17.37093 -86.97586,162.74295 -59.04525,16.50707l-74.65562,86.03245c-7.95579,9.15903 -21.80053,10.09575 -30.94034,2.13363s-10.10572,-21.84637 -2.16031,-31.0054l74.75948,-86.12611c-146.85044,23.03072 -6.82369,-43.33887 8.1739,-60.61613c14.19787,-16.39258 35.86337,-22.38758 55.54512,-17.42298l-28.60345,33.43047l9.35792,27.27933l28.27109,5.50584l28.67615,-33.51374c7.76884,18.8801 4.91265,41.34055 -9.37869,57.79557z" stroke-width="0" fill="url(#svg_36)"/>
  <path id="svg_48" d="m74.5978,132.74999" opacity="0.5" stroke-opacity="null" stroke-width="0" stroke="null" fill="url(#svg_42)"/>
  <path id="svg_43" d="m-178.56142,116.55143c-1.35072,0 -2.44566,0.24332 -2.44566,0.54348c0,0.30016 1.09494,0.54348 2.44566,0.54348c1.35072,0 2.44566,-0.24332 2.44566,-0.54348c0,-0.30016 -1.09494,-0.54348 -2.44566,-0.54348zm1.41112,0.50489c-0.24416,0.06241 -0.62361,0.08305 -0.95662,0.05931l-1.20954,0.3091c-0.1289,0.03291 -0.3532,0.03627 -0.50128,0.00767s-0.16373,-0.07849 -0.035,-0.1114l1.21122,-0.30943c-0.15027,-0.06974 -0.11055,-0.15571 0.13243,-0.21778c0.23003,-0.05889 0.58104,-0.08043 0.89992,-0.0626l-0.46342,0.12011l0.15161,0.09801l0.45803,0.01978l0.4646,-0.12041c0.12587,0.06783 0.07959,0.14853 -0.15195,0.20765z" stroke-opacity="null" stroke-width="0" stroke="null" fill="url(#svg_42)"/>
  <path id="svg_44" d="m-113.46617,79.09882c-23.86259,0 -43.20654,33.8215 -43.20654,75.54351c0,41.72202 19.34395,75.54351 43.20654,75.54351c23.86259,0 43.20654,-33.8215 43.20654,-75.54351c0,-41.72202 -19.34395,-75.54351 -43.20654,-75.54351zm24.92982,70.17948c-4.31352,8.67498 -11.01716,11.54411 -16.90031,8.24357l-21.36842,42.96427c-2.27716,4.57398 -6.23989,5.04178 -8.85594,1.06553s-2.89253,-10.90999 -0.61834,-15.48398l21.39815,-43.01105c-2.6547,-9.69373 -1.95312,-21.64326 2.33959,-30.27146c4.0638,-8.18639 10.26505,-11.18027 15.89848,-8.70097l-8.18706,16.69504l2.67848,13.6232l8.09194,2.74959l8.20787,-16.73663c2.22365,9.42865 1.40613,20.6453 -2.68443,28.86288z" stroke-opacity="null" stroke-width="0" stroke="null" fill="url(#svg_42)"/>
 </g>
</svg>