<?xml version="1.0" encoding="iso-8859-1"?>
<!-- Generator: Adobe Illustrator 16.0.0, SVG Export Plug-In . SVG Version: 6.00 Build 0)  -->
<!DOCTYPE svg PUBLIC "-//W3C//DTD SVG 1.1//EN" "http://www.w3.org/Graphics/SVG/1.1/DTD/svg11.dtd">
<svg version="1.1" id="Capa_1" xmlns="http://www.w3.org/2000/svg" xmlns:xlink="http://www.w3.org/1999/xlink" x="0px" y="0px"
	 width="223.061px" height="223.061px" viewBox="0 0 223.061 223.061" style="enable-background:new 0 0 223.061 223.061;"
	 xml:space="preserve">
<g>
	<path d="M32.551,0v223.061H190.51V0H32.551z M111.53,218.391c-6.59,0-11.942-5.344-11.942-11.939
		c0-6.614,5.346-11.946,11.942-11.946c6.597,0,11.94,5.332,11.94,11.946C123.471,213.047,118.115,218.391,111.53,218.391z
		 M172.353,188.222H50.703V18.158h121.65V188.222z M154.194,97.64c0,20.457-14.398,37.527-33.608,41.688V120
		c8.83-3.582,15.084-12.229,15.084-22.354c0-6.629-2.672-12.62-6.998-16.985l0.213,12.082l-8.689,14.322h-17.351l-8.686-14.322
		l0.213-12.082c-4.321,4.365-6.999,10.356-6.999,16.985c0,10.131,6.254,18.772,15.09,22.354v19.322
		c-19.21-4.167-33.609-21.231-33.609-41.688c0-23.581,19.101-42.673,42.664-42.673C135.079,54.961,154.194,74.065,154.194,97.64z"/>
</g>
<g>
</g>
<g>
</g>
<g>
</g>
<g>
</g>
<g>
</g>
<g>
</g>
<g>
</g>
<g>
</g>
<g>
</g>
<g>
</g>
<g>
</g>
<g>
</g>
<g>
</g>
<g>
</g>
<g>
</g>
</svg>
